<svg width="25" height="25" viewBox="0 0 25 25" fill="none" xmlns="http://www.w3.org/2000/svg">
<path d="M15.3396 18.5V19.25C15.3396 20.0456 15.0235 20.8087 14.4609 21.3713C13.8983 21.9339 13.1352 22.25 12.3396 22.25C11.5439 22.25 10.7809 21.9339 10.2183 21.3713C9.65566 20.8087 9.33959 20.0456 9.33959 19.25V18.5M20.3871 16.9733C19.1833 15.5 18.3335 14.75 18.3335 10.6883C18.3335 6.96875 16.4341 5.64359 14.8708 5C14.6632 4.91469 14.4677 4.71875 14.4044 4.50547C14.1302 3.57219 13.3615 2.75 12.3396 2.75C11.3177 2.75 10.5485 3.57266 10.2771 4.50641C10.2138 4.72203 10.0183 4.91469 9.81068 5C8.24552 5.64453 6.34802 6.965 6.34802 10.6883C6.34568 14.75 5.49584 15.5 4.29209 16.9733C3.79334 17.5836 4.23021 18.5 5.10256 18.5H19.5813C20.449 18.5 20.883 17.5808 20.3871 16.9733Z" stroke="#046B82" stroke-width="1.5" stroke-linecap="round" stroke-linejoin="round"/>
</svg>
