<svg width="25" height="25" viewBox="0 0 25 25" fill="none" xmlns="http://www.w3.org/2000/svg">
<path d="M15.0193 18.5V19.25C15.0193 20.0456 14.7032 20.8087 14.1406 21.3713C13.578 21.9339 12.8149 22.25 12.0193 22.25C11.2236 22.25 10.4606 21.9339 9.89795 21.3713C9.33535 20.8087 9.01927 20.0456 9.01927 19.25V18.5M20.0668 16.9733C18.863 15.5 18.0132 14.75 18.0132 10.6883C18.0132 6.96875 16.1138 5.64359 14.5505 5C14.3429 4.91469 14.1474 4.71875 14.0841 4.50547C13.8099 3.57219 13.0411 2.75 12.0193 2.75C10.9974 2.75 10.2282 3.57266 9.95677 4.50641C9.89349 4.72203 9.69802 4.91469 9.49037 5C7.92521 5.64453 6.02771 6.965 6.02771 10.6883C6.02537 14.75 5.17552 15.5 3.97177 16.9733C3.47302 17.5836 3.9099 18.5 4.78224 18.5H19.261C20.1286 18.5 20.5627 17.5808 20.0668 16.9733Z" stroke="white" stroke-width="1.5" stroke-linecap="round" stroke-linejoin="round"/>
</svg>
