<svg width="31" height="31" viewBox="0 0 31 31" fill="none" xmlns="http://www.w3.org/2000/svg">
<path d="M2.90625 25.1875V18.4062C2.90928 17.3795 3.31852 16.3956 4.04456 15.6696C4.77061 14.9435 5.75447 14.5343 6.78125 14.5312H24.2187C25.2455 14.5343 26.2294 14.9435 26.9554 15.6696C27.6815 16.3956 28.0907 17.3795 28.0937 18.4062V25.1875M23.25 14.5312H5.8125V8.23437C5.81442 7.59264 6.07019 6.97774 6.52397 6.52397C6.97774 6.07019 7.59264 5.81442 8.23437 5.8125H22.7656C23.4074 5.81442 24.0223 6.07019 24.476 6.52397C24.9298 6.97774 25.1856 7.59264 25.1875 8.23437V14.5312H23.25Z" stroke="#6E6E6E" stroke-width="2" stroke-linecap="round" stroke-linejoin="round"/>
<path d="M2.90625 25.1875V24.7031C2.90737 24.3181 3.06082 23.9491 3.3331 23.6768C3.60537 23.4046 3.97433 23.2511 4.35938 23.25H26.6406C27.0257 23.2511 27.3946 23.4046 27.6669 23.6768C27.9392 23.9491 28.0926 24.3181 28.0938 24.7031V25.1875M6.78125 14.5312V13.5625C6.78269 13.0491 6.98728 12.5571 7.35032 12.1941C7.71336 11.831 8.20534 11.6264 8.71875 11.625H13.5625C14.0759 11.6264 14.5679 11.831 14.9309 12.1941C15.294 12.5571 15.4986 13.0491 15.5 13.5625V14.5312M15.5 14.5312V13.5625C15.5014 13.0491 15.706 12.5571 16.0691 12.1941C16.4321 11.831 16.9241 11.6264 17.4375 11.625H22.2812C22.7947 11.6264 23.2866 11.831 23.6497 12.1941C24.0127 12.5571 24.2173 13.0491 24.2188 13.5625V14.5312" stroke="#6E6E6E" stroke-width="3" stroke-linecap="round" stroke-linejoin="round"/>
</svg>
