<svg width="22" height="22" viewBox="0 0 22 22" fill="none" xmlns="http://www.w3.org/2000/svg">
<path d="M21.2754 18.7949C21.6445 19.2051 21.6445 19.8203 21.2344 20.1895L20.0859 21.3379C19.7168 21.748 19.1016 21.748 18.6914 21.3379L14.6309 17.2773C14.4258 17.0723 14.3438 16.8262 14.3438 16.5801V15.8828C12.8672 17.0312 11.0625 17.6875 9.09375 17.6875C4.37695 17.6875 0.5625 13.873 0.5625 9.15625C0.5625 4.48047 4.37695 0.625 9.09375 0.625C13.7695 0.625 17.625 4.48047 17.625 9.15625C17.625 11.166 16.9277 12.9707 15.8203 14.4062H16.4766C16.7227 14.4062 16.9688 14.5293 17.1738 14.6934L21.2754 18.7949ZM9.09375 14.4062C11.9648 14.4062 14.3438 12.0684 14.3438 9.15625C14.3438 6.28516 11.9648 3.90625 9.09375 3.90625C6.18164 3.90625 3.84375 6.28516 3.84375 9.15625C3.84375 12.0684 6.18164 14.4062 9.09375 14.4062Z" fill="#6E6E6E"/>
</svg>
