<svg width="31" height="31" viewBox="0 0 31 31" fill="none" xmlns="http://www.w3.org/2000/svg">
<path d="M15.3929 29.7857C23.3418 29.7857 29.7857 23.3418 29.7857 15.3929C29.7857 7.4439 23.3418 1 15.3929 1C7.4439 1 1 7.4439 1 15.3929C1 23.3418 7.4439 29.7857 15.3929 29.7857Z" stroke="#6E6E6E" stroke-width="2" stroke-linecap="round" stroke-linejoin="round"/>
<path d="M2.10742 20.9286H5.98242C7.01014 20.9286 7.99576 20.5203 8.72246 19.7936C9.44916 19.0669 9.85742 18.0813 9.85742 17.0536V13.7322C9.85742 12.7045 10.2657 11.7188 10.9924 10.9921C11.7191 10.2654 12.7047 9.85717 13.7324 9.85717C14.7601 9.85717 15.7458 9.44891 16.4725 8.72221C17.1992 7.99551 17.6074 7.00989 17.6074 5.98217V1.15503" stroke="#6E6E6E" stroke-width="2" stroke-linecap="round" stroke-linejoin="round"/>
<path d="M29.786 15.1714C28.6773 14.5962 27.4478 14.2926 26.1989 14.2857H21.4824C20.4547 14.2857 19.4691 14.694 18.7424 15.4207C18.0157 16.1474 17.6074 17.133 17.6074 18.1607C17.6074 19.1884 18.0157 20.174 18.7424 20.9007C19.4691 21.6274 20.4547 22.0357 21.4824 22.0357C22.2165 22.0357 22.9205 22.3273 23.4396 22.8464C23.9587 23.3655 24.2503 24.0695 24.2503 24.8036V26.73" stroke="#6E6E6E" stroke-width="2" stroke-linecap="round" stroke-linejoin="round"/>
</svg>
