<svg width="33" height="33" viewBox="0 0 33 33" fill="none" xmlns="http://www.w3.org/2000/svg">
<path d="M1 32V2.50082C1.00043 2.39653 1.0332 2.29416 1.09501 2.20393C1.15683 2.11371 1.24553 2.03878 1.35227 1.98663C2.04009 1.64534 3.8992 1 8.04545 1C13.6818 1 20.8153 4.57692 24.9545 4.57692C27.2915 4.57179 29.6038 4.17227 31.7561 3.40176C31.7828 3.3923 31.812 3.38859 31.8409 3.39096C31.8698 3.39334 31.8975 3.40172 31.9217 3.41537C31.9458 3.42901 31.9656 3.44749 31.9793 3.46917C31.9929 3.49085 32.0001 3.51505 32 3.53962V19.8862C31.9998 19.9439 31.9798 20.0003 31.9424 20.0486C31.9051 20.0969 31.852 20.1349 31.7895 20.1581C31.0638 20.4272 28.5063 21.2692 24.9545 21.2692C20.7273 21.2692 13.6818 18.8846 8.04545 18.8846C2.40909 18.8846 1 20.0769 1 20.0769" stroke="#6E6E6E" stroke-width="2" stroke-miterlimit="10" stroke-linecap="round"/>
</svg>
