<svg width="20" height="21" viewBox="0 0 20 21" fill="none" xmlns="http://www.w3.org/2000/svg">
<path d="M12.9988 16.5V17.25C12.9988 18.0456 12.6827 18.8087 12.1201 19.3713C11.5575 19.9339 10.7944 20.25 9.99877 20.25C9.20312 20.25 8.44006 19.9339 7.87745 19.3713C7.31484 18.8087 6.99877 18.0456 6.99877 17.25V16.5M18.0463 14.9733C16.8425 13.5 15.9927 12.75 15.9927 8.68828C15.9927 4.96875 14.0933 3.64359 12.53 3C12.3224 2.91469 12.1269 2.71875 12.0636 2.50547C11.7894 1.57219 11.0206 0.75 9.99877 0.75C8.97689 0.75 8.20767 1.57266 7.93627 2.50641C7.87299 2.72203 7.67752 2.91469 7.46986 3C5.9047 3.64453 4.0072 4.965 4.0072 8.68828C4.00486 12.75 3.15502 13.5 1.95127 14.9733C1.45252 15.5836 1.88939 16.5 2.76174 16.5H17.2405C18.1081 16.5 18.5422 15.5808 18.0463 14.9733Z" stroke="#046B82" stroke-width="1.5" stroke-linecap="round" stroke-linejoin="round"/>
</svg>
