<svg width="20" height="20" viewBox="0 0 20 20" fill="none" xmlns="http://www.w3.org/2000/svg">
<path fill-rule="evenodd" clip-rule="evenodd" d="M5.43693 1.67584L9.74776 5.98918L8.22609 8.26001L8.30609 8.43251C8.44526 8.72251 8.66193 9.12334 8.97276 9.55501C9.56193 10.3767 10.4694 11.29 11.7919 11.805L14.4319 10.6767L18.3244 14.5717L15.6978 18.0717L15.4311 18.1033H15.4269L15.4219 18.1042L15.4069 18.1058C15.3334 18.1125 15.2598 18.1172 15.1861 18.12C15.0403 18.1258 14.8328 18.1283 14.5719 18.1167C13.8521 18.0798 13.138 17.9684 12.4411 17.7842C10.6836 17.3283 8.36609 16.2892 6.05109 13.9725C3.73359 11.6533 2.68693 9.32751 2.22526 7.56418C2.03867 6.8644 1.92446 6.1473 1.88443 5.42418C1.87107 5.16154 1.87191 4.89838 1.88693 4.63584L1.89109 4.58584L1.89276 4.57084V4.56668L1.89359 4.56501C1.89359 4.56501 1.89359 4.56334 2.51526 4.63168L1.89359 4.56334L1.92359 4.29251L5.43693 1.67668V1.67584ZM3.12526 4.95584C3.12359 5.06168 3.12526 5.19751 3.13359 5.36168C3.15526 5.81001 3.22859 6.46001 3.43443 7.24668C3.84526 8.81668 4.78859 10.9408 6.93442 13.0883C9.07859 15.2342 11.1936 16.17 12.7544 16.575C13.5378 16.7775 14.1844 16.8475 14.6294 16.8675C14.7928 16.8758 14.9286 16.8758 15.0336 16.8742L16.6744 14.6883L14.1453 12.1583L11.8344 13.1458L11.6078 13.0683C9.84526 12.4633 8.67693 11.2875 7.95692 10.2842C7.65983 9.87042 7.3994 9.43153 7.17859 8.97251C7.08966 8.78673 7.00903 8.5971 6.93692 8.40418L6.93359 8.39418L6.93193 8.39001C6.93193 8.39001 6.93193 8.38751 7.52359 8.18751L6.93193 8.38751L6.83193 8.09584L8.13776 6.14668L5.31609 3.32501L3.12526 4.95584Z" fill="black"/>
</svg>
