<svg xmlns="http://www.w3.org/2000/svg" xmlns:xlink="http://www.w3.org/1999/xlink" viewBox="0,0,256,256" width="48px" height="48px"><g fill="#ffffff" fill-rule="nonzero" stroke="none" stroke-width="1" stroke-linecap="butt" stroke-linejoin="miter" stroke-miterlimit="10" stroke-dasharray="" stroke-dashoffset="0" font-family="none" font-weight="none" font-size="none" text-anchor="none" style="mix-blend-mode: normal"><g transform="scale(4,4)"><path d="M16,14c-0.512,0 -1.02306,0.19494 -1.41406,0.58594c-0.781,0.781 -0.781,2.04712 0,2.82812l14.58594,14.58594l-14.58594,14.58594c-0.781,0.781 -0.781,2.04713 0,2.82812c0.391,0.391 0.90206,0.58594 1.41406,0.58594c0.512,0 1.02306,-0.19494 1.41406,-0.58594l14.58594,-14.58594l14.58594,14.58594c0.781,0.781 2.04713,0.781 2.82812,0c0.781,-0.781 0.781,-2.04713 0,-2.82812l-14.58594,-14.58594l14.58594,-14.58594c0.781,-0.781 0.781,-2.04712 0,-2.82812c-0.781,-0.781 -2.04713,-0.781 -2.82812,0l-14.58594,14.58594l-14.58594,-14.58594c-0.391,-0.391 -0.90206,-0.58594 -1.41406,-0.58594z"></path></g></g></svg>