<svg width="31" height="32" viewBox="0 0 31 32" fill="none" xmlns="http://www.w3.org/2000/svg">
<path d="M2.90625 25.6097V18.8285C2.90928 17.8017 3.31852 16.8179 4.04456 16.0918C4.77061 15.3658 5.75447 14.9565 6.78125 14.9535H24.2187C25.2455 14.9565 26.2294 15.3658 26.9554 16.0918C27.6815 16.8179 28.0907 17.8017 28.0937 18.8285V25.6097M23.25 14.9535H5.8125V8.65662C5.81442 8.01488 6.07019 7.39998 6.52397 6.94621C6.97774 6.49243 7.59264 6.23666 8.23437 6.23474H22.7656C23.4074 6.23666 24.0223 6.49243 24.476 6.94621C24.9298 7.39998 25.1856 8.01488 25.1875 8.65662V14.9535H23.25Z" stroke="#6E6E6E" stroke-width="2" stroke-linecap="round" stroke-linejoin="round"/>
<path d="M2.90625 25.6097V25.1254C2.90737 24.7403 3.06082 24.3714 3.3331 24.0991C3.60537 23.8268 3.97433 23.6734 4.35938 23.6722H26.6406C27.0257 23.6734 27.3946 23.8268 27.6669 24.0991C27.9392 24.3714 28.0926 24.7403 28.0938 25.1254V25.6097M6.78125 14.9535V13.9847C6.78269 13.4713 6.98728 12.9794 7.35032 12.6163C7.71336 12.2533 8.20534 12.0487 8.71875 12.0472H13.5625C14.0759 12.0487 14.5679 12.2533 14.9309 12.6163C15.294 12.9794 15.4986 13.4713 15.5 13.9847V14.9535M15.5 14.9535V13.9847C15.5014 13.4713 15.706 12.9794 16.0691 12.6163C16.4321 12.2533 16.9241 12.0487 17.4375 12.0472H22.2812C22.7947 12.0487 23.2866 12.2533 23.6497 12.6163C24.0127 12.9794 24.2173 13.4713 24.2188 13.9847V14.9535" stroke="#6E6E6E" stroke-width="3" stroke-linecap="round" stroke-linejoin="round"/>
</svg>
