<svg width="41" height="41" viewBox="0 0 41 41" fill="none" xmlns="http://www.w3.org/2000/svg">
<rect x="0.660156" y="0.5" width="40" height="40" rx="20" fill="white"/>
<path d="M30.3691 13.6152C29.2338 12.5806 27.7417 12.0062 26.1927 12.0072C24.6404 12.0072 23.148 12.5808 22.0162 13.6152L20.9895 14.5776L19.9396 13.6032C18.8049 12.5719 17.3154 11.9993 15.7692 12C14.223 11.9993 12.7335 12.5719 11.5988 13.6032C9.27775 15.7308 9.66887 19.0128 11.5866 21.3192C14.5645 24.3714 17.7027 27.2689 20.9883 30C20.9883 30 28.3157 23.8284 30.3679 21.3312C32.4201 18.8352 32.6645 15.7428 30.3679 13.6152H30.3691Z" fill="#FF5D5D"/>
</svg>
