<svg width="41" height="41" viewBox="0 0 41 41" fill="none" xmlns="http://www.w3.org/2000/svg">
<rect x="0.330078" y="0.5" width="40" height="40" rx="20" fill="white"/>
<path fill-rule="evenodd" clip-rule="evenodd" d="M12.1278 14.286C13.1948 13.298 14.5956 12.7494 16.0498 12.75C17.5048 12.75 18.9068 13.298 19.9718 14.286L19.9768 14.291L20.3178 14.613L20.6498 14.296C21.7177 13.3051 23.121 12.755 24.5778 12.756C26.0358 12.756 27.4398 13.306 28.5058 14.296L28.5098 14.3C29.6028 15.332 30.1088 16.624 30.0788 17.962C30.0488 19.285 29.5008 20.605 28.5788 21.747C27.6948 22.843 25.7288 24.69 24.0318 26.225C22.9915 27.1653 21.9404 28.0937 20.8788 29.01L20.8098 29.069L20.3208 28.5L20.8108 29.069L20.3248 29.485L19.8368 29.073C17.1284 26.7802 14.5416 24.3475 12.0868 21.785L12.0658 21.764L12.0458 21.741C10.3208 19.626 9.84278 16.421 12.1258 14.288L12.1278 14.286ZM20.3178 27.512C21.2287 26.7214 22.1314 25.9213 23.0258 25.112C24.7458 23.556 26.6158 21.792 27.4108 20.806C28.1678 19.867 28.5588 18.858 28.5788 17.929C28.5988 17.017 28.2658 16.134 27.4818 15.393C26.692 14.661 25.6547 14.2545 24.5778 14.255C23.5015 14.2542 22.4647 14.6599 21.6748 15.391L20.3248 16.683L18.9498 15.383C18.1602 14.6537 17.1246 14.2491 16.0498 14.25C14.9743 14.2494 13.9383 14.6548 13.1488 15.385C11.6418 16.793 11.7958 19.044 13.1908 20.77C15.4552 23.1321 17.8337 25.3821 20.3178 27.512Z" fill="black"/>
</svg>
