<svg width="32" height="32" viewBox="0 0 32 32" fill="none" xmlns="http://www.w3.org/2000/svg">
<g id="food-kitchenware-fork-spoon--fork-spoon-food-dine-cook-utensils-eat-restaurant-dining" clip-path="url(#clip0_395_110)">
<g id="Group 1000001727">
<path id="Vector" d="M25.9237 15.708C28.8587 15.708 31.2379 12.7338 31.2379 9.0651C31.2379 5.39635 28.8587 2.42224 25.9237 2.42224C22.9887 2.42224 20.6094 5.39635 20.6094 9.0651C20.6094 12.7338 22.9887 15.708 25.9237 15.708Z" stroke="#6E6E6E" stroke-width="2" stroke-linecap="round" stroke-linejoin="round"/>
<path id="Vector_2" d="M25.9238 15.708V31.208" stroke="#6E6E6E" stroke-width="2" stroke-linecap="round" stroke-linejoin="round"/>
<path id="Vector_3" d="M10.2031 2.42224V31.208" stroke="#6E6E6E" stroke-width="2" stroke-linecap="round" stroke-linejoin="round"/>
<path id="Vector_4" d="M15.7384 2.42224V7.95796C15.7384 8.68492 15.5952 9.40476 15.317 10.0764C15.0388 10.748 14.6311 11.3583 14.117 11.8723C13.603 12.3863 12.9928 12.7941 12.3211 13.0723C11.6495 13.3505 10.9297 13.4937 10.2027 13.4937V13.4937C8.73454 13.4937 7.32651 12.9104 6.28837 11.8723C5.25022 10.8341 4.66699 9.42612 4.66699 7.95796V2.42224" stroke="#6E6E6E" stroke-width="2" stroke-linecap="round" stroke-linejoin="round"/>
</g>
</g>
<defs>
<clipPath id="clip0_395_110">
<rect width="31" height="31" fill="white" transform="translate(0.666992 0.422241)"/>
</clipPath>
</defs>
</svg>
