<svg width="31" height="32" viewBox="0 0 31 32" fill="none" xmlns="http://www.w3.org/2000/svg">
<g id="Group 1000001728">
<path id="Vector" d="M15.3929 30.208C23.3418 30.208 29.7857 23.7641 29.7857 15.8151C29.7857 7.86614 23.3418 1.42224 15.3929 1.42224C7.4439 1.42224 1 7.86614 1 15.8151C1 23.7641 7.4439 30.208 15.3929 30.208Z" stroke="#6E6E6E" stroke-width="2" stroke-linecap="round" stroke-linejoin="round"/>
<path id="Vector_2" d="M2.10742 21.3508H5.98242C7.01014 21.3508 7.99576 20.9426 8.72246 20.2159C9.44916 19.4892 9.85742 18.5036 9.85742 17.4758V14.1544C9.85742 13.1267 10.2657 12.1411 10.9924 11.4144C11.7191 10.6877 12.7047 10.2794 13.7324 10.2794C14.7601 10.2794 15.7458 9.87116 16.4725 9.14445C17.1992 8.41775 17.6074 7.43213 17.6074 6.40441V1.57727" stroke="#6E6E6E" stroke-width="2" stroke-linecap="round" stroke-linejoin="round"/>
<path id="Vector_3" d="M29.786 15.5937C28.6773 15.0185 27.4478 14.7149 26.1989 14.708H21.4824C20.4547 14.708 19.4691 15.1163 18.7424 15.843C18.0157 16.5697 17.6074 17.5553 17.6074 18.583C17.6074 19.6107 18.0157 20.5963 18.7424 21.323C19.4691 22.0498 20.4547 22.458 21.4824 22.458C22.2165 22.458 22.9205 22.7496 23.4396 23.2687C23.9587 23.7878 24.2503 24.4918 24.2503 25.2259V27.1523" stroke="#6E6E6E" stroke-width="2" stroke-linecap="round" stroke-linejoin="round"/>
</g>
</svg>
