<svg width="34" height="34" viewBox="0 0 34 34" fill="none" xmlns="http://www.w3.org/2000/svg">
<path id="Vector" d="M1.33301 32.4222V2.92306C1.33344 2.81877 1.3662 2.7164 1.42802 2.62617C1.48983 2.53595 1.57854 2.46102 1.68528 2.40888C2.37309 2.06758 4.23221 1.42224 8.37846 1.42224C14.0148 1.42224 21.1483 4.99916 25.2876 4.99916C27.6245 4.99403 29.9368 4.59452 32.0891 3.824C32.1159 3.81454 32.145 3.81083 32.1739 3.81321C32.2028 3.81558 32.2306 3.82396 32.2547 3.83761C32.2788 3.85125 32.2986 3.86974 32.3123 3.89141C32.326 3.91309 32.3331 3.93729 32.333 3.96186V20.3084C32.3328 20.3661 32.3128 20.4225 32.2754 20.4708C32.2381 20.5191 32.185 20.5572 32.1225 20.5804C31.3968 20.8494 28.8393 21.6915 25.2876 21.6915C21.0603 21.6915 14.0148 19.3069 8.37846 19.3069C2.7421 19.3069 1.33301 20.4992 1.33301 20.4992" stroke="#6E6E6E" stroke-width="2" stroke-miterlimit="10" stroke-linecap="round"/>
</svg>
